<mxfile host="app.diagrams.net" modified="2024-03-17T20:46:30.298Z" agent="Mozilla/5.0 (X11; Linux x86_64; rv:123.0) Gecko/20100101 Firefox/123.0" version="24.0.7" etag="sFe5-kDQXBTtU2Dv0D1y" type="github">
  <diagram name="Page-1" id="qft0TahpkPllgXXpXTtk">
    <mxGraphModel>
      <root>
        <mxCell id="0" />
        <mxCell id="1" parent="0" />
      </root>
    </mxGraphModel>
  </diagram>
</mxfile>
